Coordinates
version=1
nRows=14
nColumns=46
inDegrees=yes

Units are S.I. units (second, meters, Newtons, ...)
Angles are in degrees.

endheader
time	pelvis_tilt	pelvis_list	pelvis_rotation	pelvis_tx	pelvis_ty	pelvis_tz	bb_angle	bb_tx	bb_ty	bb_tz	hip_flexion_r	hip_adduction_r	hip_rotation_r	knee_angle_r	knee_angle_r_beta	ankle_angle_r	subtalar_angle_r	mtp_angle_r	crank_angle_r	hip_flexion_l	hip_adduction_l	hip_rotation_l	knee_angle_l	knee_angle_l_beta	ankle_angle_l	subtalar_angle_l	mtp_angle_l	crank_angle_l	lumbar_extension	lumbar_bending	lumbar_rotation	arm_flex_r	arm_add_r	arm_rot_r	elbow_flex_r	pro_sup_r	wrist_flex_r	wrist_dev_r	arm_flex_l	arm_add_l	arm_rot_l	elbow_flex_l	pro_sup_l	wrist_flex_l	wrist_dev_l
      5.00500000	    -23.11247043	     -3.04803645	     -4.79631588	      0.08673020	      1.11941398	     -0.26097904	      0.00000000	      0.50000000	      0.00000000	      0.25000000	     93.58313344	      6.50724554	      4.44335795	    102.59651309	      1.79064695	      6.36434997	    -15.82528831	      0.00000000	      0.00000000	     49.50310028	    -11.40026725	     -4.48533783	     44.67836194	      0.77978452	    -17.72520173	    -10.57866290	      0.00000000	      0.00000000	    -65.32621716	      2.33435326	      5.52866123	     89.54830347	    -30.06614567	     27.46859863	     92.23610660	     42.69659411	      0.00000000	      0.00000000	     82.05542984	    -44.20074457	     21.04353027	     96.42984015	     48.20137620	      0.00000000	      0.00000000
      5.01000000	    -23.11535871	     -3.10841820	     -5.02367577	      0.08621205	      1.12018204	     -0.26073803	      0.00000000	      0.50000000	      0.00000000	      0.25000000	     92.45920358	      6.76682195	      4.48743035	    100.38113509	      1.75198131	      7.96016019	    -15.95366396	      0.00000000	      0.00000000	     50.75195600	    -11.52576154	     -3.63529377	     47.52313116	      0.82943511	    -18.72432500	    -11.72170261	      0.00000000	      0.00000000	    -65.53265131	      2.24342563	      5.62704840	     89.55281519	    -29.94735956	     27.40006054	     92.53673334	     42.60761473	      0.00000000	      0.00000000	     82.39582497	    -44.35788602	     20.96758724	     96.37764553	     48.20131698	      0.00000000	      0.00000000
      5.01500000	    -23.08816265	     -2.89915018	     -5.21867788	      0.08596061	      1.12070399	     -0.26055487	      0.00000000	      0.50000000	      0.00000000	      0.25000000	     91.22615860	      6.89120779	      4.75722762	     98.05886089	      1.71144998	      9.51402222	    -16.15051504	      0.00000000	      0.00000000	     51.95600625	    -11.44014044	     -3.04172450	     50.35011281	      0.87877525	    -19.67338765	    -12.52254754	      0.00000000	      0.00000000	    -65.65906133	      2.05449989	      5.55915878	     89.56196092	    -29.77225752	     27.43858642	     92.70049767	     42.54914004	      0.00000000	      0.00000000	     82.53945082	    -44.45696535	     20.99031137	     96.33860390	     48.20774702	      0.00000000	      0.00000000
      5.02000000	    -22.99290965	     -2.66764470	     -5.42065979	      0.08573012	      1.12107005	     -0.26033761	      0.00000000	      0.50000000	      0.00000000	      0.25000000	     89.84411613	      7.02259384	      5.11868396	     95.60838070	      1.66868104	     10.82575649	    -16.29856968	      0.00000000	      0.00000000	     53.12429028	    -11.27002390	     -2.28640540	     53.20711379	      0.92863932	    -20.63580474	    -13.10480651	      0.00000000	      0.00000000	    -65.78562745	      1.77036647	      5.30242133	     89.55529602	    -29.66397147	     27.48706357	     92.84978997	     42.51598683	      0.00000000	      0.00000000	     82.62210069	    -44.58224230	     21.00614749	     96.29934856	     48.21061664	      0.00000000	      0.00000000
      5.02500000	    -23.22782595	     -3.05379175	     -5.60069945	      0.08530515	      1.12074059	     -0.26025016	      0.00000000	      0.50000000	      0.00000000	      0.25000000	     88.66502087	      7.15872838	      4.79356606	     92.82669747	      1.62013150	     11.90704394	    -16.20697079	      0.00000000	      0.00000000	     54.89956501	    -11.52147552	     -1.01659662	     56.28910896	      0.98243028	    -21.57104347	    -13.89565720	      0.00000000	      0.00000000	    -65.65388712	      2.04954357	      5.39083704	     89.56963095	    -28.88539344	     27.84285846	     92.84127339	     42.00116622	      0.00000000	      0.00000000	     82.53133241	    -45.81204004	     21.23248995	     96.65157396	     48.37167978	      0.00000000	      0.00000000
      5.03000000	    -23.02594627	     -2.81357587	     -5.82348447	      0.08522457	      1.12082932	     -0.25996890	      0.00000000	      0.50000000	      0.00000000	      0.25000000	     87.07128035	      7.22633826	      5.02179931	     90.06241580	      1.57188569	     12.91495287	    -16.28301325	      0.00000000	      0.00000000	     55.99104260	    -11.36189364	     -0.42897738	     59.13608914	      1.03211946	    -22.38308296	    -14.38012713	      0.00000000	      0.00000000	    -65.85976344	      1.76051640	      5.16434761	     89.57173677	    -28.63914050	     27.93765075	     92.90044717	     41.91364453	      0.00000000	      0.00000000	     82.68135219	    -46.01260264	     21.17873857	     96.64477568	     48.37828824	      0.00000000	      0.00000000
      5.03500000	    -22.85283796	     -2.56956976	     -6.02151986	      0.08508255	      1.12038588	     -0.25985027	      0.00000000	      0.50000000	      0.00000000	      0.25000000	     85.54773406	      7.22023073	      5.27234657	     87.35504081	      1.52463308	     13.63851124	    -16.23330192	      0.00000000	      0.00000000	     57.18856615	    -11.15802562	      0.16942772	     62.04512910	      1.08289179	    -23.14604100	    -14.70650907	      0.00000000	      0.00000000	    -65.93647850	      1.52528843	      4.90635542	     89.56266952	    -28.39583777	     28.05435788	     92.90718345	     41.83754213	      0.00000000	      0.00000000	     82.69503342	    -46.21920529	     21.21492730	     96.64517659	     48.39370448	      0.00000000	      0.00000000
      5.04000000	    -22.75285385	     -2.53757159	     -6.16966089	      0.08489592	      1.11964457	     -0.25969514	      0.00000000	      0.50000000	      0.00000000	      0.25000000	     84.04373176	      7.19667863	      5.29681682	     84.52988864	      1.47532487	     14.00587581	    -16.20144941	      0.00000000	      0.00000000	     58.53267190	    -11.04799103	      0.98597796	     64.93685688	      1.13336196	    -23.88752784	    -14.95714253	      0.00000000	      0.00000000	    -65.94185523	      1.47791312	      4.77651036	     89.56846091	    -27.90628617	     28.26142232	     92.75801549	     41.67710276	      0.00000000	      0.00000000	     82.57606255	    -46.74465329	     21.36723881	     96.68252355	     48.43772746	      0.00000000	      0.00000000
      5.04500000	    -22.61201311	     -2.35246216	     -6.28324083	      0.08475851	      1.11851106	     -0.25954476	      0.00000000	      0.50000000	      0.00000000	      0.25000000	     82.59283803	      7.08062685	      5.35102753	     81.81161883	      1.42788212	     14.04532457	    -16.36585206	      0.00000000	      0.00000000	     59.84012149	    -10.78741719	      1.67500902	     67.80386698	      1.18340072	    -24.43729505	    -14.85565244	      0.00000000	      0.00000000	    -65.91244389	      1.45325036	      3.63996737	     89.57407251	    -26.06016331	     28.45112934	     91.84506482	     40.69944074	      0.00000000	      0.00000000	     82.14523190	    -48.85772569	     21.50250110	     97.44246968	     48.70914390	      0.00000000	      0.00000000
      5.05000000	    -22.27171850	     -1.64816770	     -6.28845692	      0.08472902	      1.11746625	     -0.25979100	      0.00000000	      0.50000000	      0.00000000	      0.25000000	     81.04544187	      6.61764430	      5.86480173	     79.22046472	      1.38265794	     14.08415175	    -16.18942990	      0.00000000	      0.00000000	     60.78153663	    -10.05426590	      1.86193675	     70.42532055	      1.22915372	    -25.00463037	    -14.88094352	      0.00000000	      0.00000000	    -65.95169231	      1.11318192	      3.03629184	     89.55967740	    -26.10191300	     28.43389422	     91.90424853	     40.68515780	      0.00000000	      0.00000000	     81.97817035	    -48.73168440	     21.61880220	     97.39941797	     48.71815220	      0.00000000	      0.00000000
      5.05500000	    -22.01686858	     -1.74211089	     -6.40282966	      0.08461031	      1.11589993	     -0.25986417	      0.00000000	      0.50000000	      0.00000000	      0.25000000	     79.54252555	      6.53631518	      5.66847405	     76.65824217	      1.33793872	     13.82019273	    -16.06955278	      0.00000000	      0.00000000	     62.06512225	     -9.97923952	      2.57948554	     73.30712262	      1.27945065	    -25.74431669	    -15.36017550	      0.00000000	      0.00000000	    -65.99121817	      1.16113117	      3.01983885	     89.56142223	    -25.70296611	     28.76004220	     91.66769331	     40.55169048	      0.00000000	      0.00000000	     81.93339337	    -49.10440347	     21.79094783	     97.33059893	     48.74117280	      0.00000000	      0.00000000
      5.06000000	    -21.77340247	     -1.41799663	     -6.44418529	      0.08448973	      1.11410196	     -0.25994115	      0.00000000	      0.50000000	      0.00000000	      0.25000000	     78.13636323	      6.23043365	      5.82654911	     74.20973215	      1.29520416	     13.36803396	    -15.87932796	      0.00000000	      0.00000000	     63.25204167	     -9.58083700	      2.93843880	     75.97145691	      1.32595206	    -26.26241689	    -15.46595257	      0.00000000	      0.00000000	    -65.90518399	      1.01583894	      2.66981625	     89.55127293	    -25.46426457	     28.92005432	     91.44844546	     40.44031748	      0.00000000	      0.00000000	     81.72114519	    -49.32551561	     22.07837208	     97.30990068	     48.78113878	      0.00000000	      0.00000000
      5.06500000	    -21.61493197	     -1.34537572	     -6.61694584	      0.08424600	      1.11175960	     -0.25971668	      0.00000000	      0.50000000	      0.00000000	      0.25000000	     76.86016423	      6.17980409	      5.78750497	     71.85609338	      1.25412542	     12.73796507	    -15.83625490	      0.00000000	      0.00000000	     64.65154464	     -9.50145763	      3.41796700	     78.72941081	      1.37408744	    -26.92539417	    -15.61769977	      0.00000000	      0.00000000	    -65.65545847	      0.90338370	      2.39523137	     89.54281064	    -24.96715202	     29.20930963	     90.98065229	     40.25642330	      0.00000000	      0.00000000	     81.41831709	    -49.85156546	     22.50041184	     97.27808466	     48.84157895	      0.00000000	      0.00000000
      5.07000000	    -21.42467528	     -1.06615039	     -6.62174983	      0.08411450	      1.10941590	     -0.25998942	      0.00000000	      0.50000000	      0.00000000	      0.25000000	     75.59165337	      5.84954838	      5.91135103	     69.58435068	      1.21447603	     11.89905388	    -15.79863099	      0.00000000	      0.00000000	     65.93585930	     -9.14905379	      3.64661871	     81.29816826	      1.41892071	    -27.42829575	    -15.78646452	      0.00000000	      0.00000000	    -65.44414812	      0.90061372	      1.86080600	     89.54127292	    -24.27940289	     29.41442930	     90.30129761	     39.95338365	      0.00000000	      0.00000000	     81.05255010	    -50.69300695	     22.96379042	     97.48160104	     48.96290304	      0.00000000	      0.00000000
